<?xml version="1.0" encoding="iso-8859-1"?>
<!-- Generator: Adobe Illustrator 19.0.0, SVG Export Plug-In . SVG Version: 6.00 Build 0)  -->
<svg version="1.1" id="Capa_1" xmlns="http://www.w3.org/2000/svg" xmlns:xlink="http://www.w3.org/1999/xlink" x="0px" y="0px"
	 viewBox="0 0 514.133 514.133" style="enable-background:new 0 0 514.133 514.133;" xml:space="preserve">
<path style="fill:#CCF2FE;" d="M257.067,1.067c-140.8,0-256,115.2-256,256s115.2,256,256,256s256-115.2,256-256
	S397.867,1.067,257.067,1.067z M257.067,406.4c-83.2,0-149.333-66.133-149.333-149.333s66.133-149.333,149.333-149.333
	S406.4,173.867,406.4,257.067S340.267,406.4,257.067,406.4z"/>
<g>
	<path style="fill:#B3ECFD;" d="M344.533,378.667C406.4,359.467,449.067,304,449.067,235.733c0-83.2-66.133-149.333-149.333-149.333
		c-32,0-61.867,10.667-87.467,27.733c14.933-4.267,29.867-6.4,44.8-6.4c83.2,0,149.333,66.133,149.333,149.333
		C406.4,306.133,380.8,350.933,344.533,378.667z"/>
	<path style="fill:#B3ECFD;" d="M299.733,491.733c-140.8,0-256-115.2-256-256c0-91.733,49.067-172.8,121.6-217.6
		c-96,38.4-164.267,130.133-164.267,238.933c0,140.8,115.2,256,256,256c49.067,0,96-14.933,134.4-38.4
		C363.733,485.333,331.733,491.733,299.733,491.733z"/>
</g>
<linearGradient id="SVGID_1_" gradientUnits="userSpaceOnUse" x1="-37.0732" y1="622.6177" x2="-30.1697" y2="629.5162" gradientTransform="matrix(21.3333 0 0 -21.3333 974.6444 13815.4893)">
	<stop  offset="0" style="stop-color:#34CDFA"/>
	<stop  offset="1" style="stop-color:#E8D9F1"/>
</linearGradient>
<path style="fill:url(#SVGID_1_);" d="M385.067,478.933L331.733,387.2c-46.933,27.733-102.4,27.733-149.333,0l-53.333,91.733
	C208,525.867,306.133,525.867,385.067,478.933z"/>
<linearGradient id="SVGID_2_" gradientUnits="userSpaceOnUse" x1="-37.1015" y1="641.5861" x2="-30.2015" y2="648.486" gradientTransform="matrix(21.3333 0 0 -21.3333 974.6444 13815.4893)">
	<stop  offset="0" style="stop-color:#34CDFA"/>
	<stop  offset="1" style="stop-color:#E8D9F1"/>
</linearGradient>
<path style="fill:url(#SVGID_2_);" d="M257.067,107.733c25.6,0,51.2,6.4,74.667,19.2L385.067,35.2
	c-78.933-46.933-177.067-46.933-256,0l53.333,91.733C205.867,114.133,231.467,107.733,257.067,107.733z"/>
<linearGradient id="SVGID_3_" gradientUnits="userSpaceOnUse" x1="-27.5982" y1="632.0878" x2="-20.6997" y2="638.9912" gradientTransform="matrix(21.3333 0 0 -21.3333 974.6444 13815.4893)">
	<stop  offset="0" style="stop-color:#34CDFA"/>
	<stop  offset="1" style="stop-color:#E8D9F1"/>
</linearGradient>
<path style="fill:url(#SVGID_3_);" d="M478.933,129.067L387.2,182.4c27.733,46.933,27.733,102.4,0,149.333l91.733,53.333
	C525.867,306.133,525.867,208,478.933,129.067z"/>
<linearGradient id="SVGID_4_" gradientUnits="userSpaceOnUse" x1="-46.5715" y1="632.116" x2="-39.6715" y2="639.0161" gradientTransform="matrix(21.3333 0 0 -21.3333 974.6444 13815.4893)">
	<stop  offset="0" style="stop-color:#34CDFA"/>
	<stop  offset="1" style="stop-color:#E8D9F1"/>
</linearGradient>
<path style="fill:url(#SVGID_4_);" d="M107.733,257.067c0-25.6,6.4-51.2,19.2-74.667L35.2,129.067
	c-46.933,78.933-46.933,177.067,0,256l91.733-53.333C114.133,308.267,107.733,282.667,107.733,257.067z"/>
<g>
</g>
<g>
</g>
<g>
</g>
<g>
</g>
<g>
</g>
<g>
</g>
<g>
</g>
<g>
</g>
<g>
</g>
<g>
</g>
<g>
</g>
<g>
</g>
<g>
</g>
<g>
</g>
<g>
</g>
</svg>
